<!-- <svg xmlns="http://www.w3.org/2000/svg" viewBox="0 0 18 17" width="18" height="17">
	<path  fill="#81B3D2" d="M9.002 0l2.126 6.494h6.877l-5.564 4.012L14.566 17l-5.564-4.013L3.438 17l2.126-6.494L0 6.494h6.878z"/>
</svg> -->
<!-- <svg>
    <rect width="24" height="23" fill="#fefefe"/>
    <polygon points="12,3 14.2, 9.3 21,9.3 15.3,13.3 17.4,20 12,16.1 6.2,20 8.3,13.3 3,9.3 9.4,9.3" fill="#81b3d2"/>
</svg> -->
<svg xmlns="http://www.w3.org/2000/svg" viewBox="0 0 24 23" width="24" height="23">
	<rect width="24" height="23" fill="#fefefe"/>
    <polygon points="12,3 14.2, 9.3 21,9.3 15.3,13.3 17.4,20 12,16.1 6.2,20 8.3,13.3 3,9.3 9.4,9.3" fill="#81b3d2"/>
</svg>